# xmcd
#
# Track frame offsets:
#	150
#	21600
#	44250
#	64500
#	91050
#	111075
#	129825
#	156825
#	174300
#	192000
#	218025
#	238200
#
# Disc length: 3388 seconds
#
# Revision: 1
# Processed by: cddbd v1.5.2PL0 Copyright (c) Steve Scherf et al.
# Submitted via: EasyCDDAExtractor 10.0.3.1
#
DISCID=990d3a0c
DTITLE=許景淳 - 真感情
DYEAR=2005
DGENRE=Pop
TTITLE0=愛的箴言
TTITLE1=真感情
TTITLE2=新不了情
TTITLE3=渴望
TTITLE4=午夜
TTITLE5=風兒輕輕吹
TTITLE6=睡吧!我的愛
TTITLE7=I Honestly Love You
TTITLE8=秋風夜雨
TTITLE9=Misty
TTITLE10=河邊春夢
TTITLE11=天頂的月娘
EXTD=
EXTT0=
EXTT1=
EXTT2=
EXTT3=
EXTT4=
EXTT5=
EXTT6=
EXTT7=
EXTT8=
EXTT9=
EXTT10=
EXTT11=
PLAYORDER=
